<?xml version="1.0" encoding="UTF-8" standalone="no"?>
<svg width="672px" height="144px" viewBox="0 0 672 144" version="1.1" xmlns="http://www.w3.org/2000/svg" xmlns:xlink="http://www.w3.org/1999/xlink" xmlns:sketch="http://www.bohemiancoding.com/sketch/ns">
    <!-- Generator: Sketch 3.5.2 (25235) - http://www.bohemiancoding.com/sketch -->
    <title>Untitled</title>
    <desc>Created with Sketch.</desc>
    <defs></defs>
    <g id="Page-1" stroke="none" stroke-width="1" fill="none" fill-rule="evenodd" sketch:type="MSPage">
        <g id="logo" sketch:type="MSLayerGroup">
            <g id="Layer_1" sketch:type="MSShapeGroup">
                <g id="Group">
                    <path d="M671.084,113.271 L671.084,114.156 L333.413,114.156 L333.413,113.271 L333.413,32.465 L333.413,31.489 L671.084,31.489 L671.084,113.271 Z" id="Shape" fill="#FFF100"></path>
                    <g transform="translate(476.000000, 54.000000)" id="Shape" fill="#231F20">
                        <path d="M0.876,0.456 L15.076,0.456 C28.579,0.456 34.526,10.101 34.526,18.727 C34.526,28.104 27.185,36.999 15.13,36.999 L0.875,36.999 L0.875,0.456 L0.876,0.456 Z M6.128,32.284 L14.486,32.284 C26.382,32.284 29.115,23.227 29.115,18.727 C29.115,11.386 24.453,5.171 14.218,5.171 L6.128,5.171 L6.128,32.284 L6.128,32.284 Z"></path>
                        <path d="M78.356,37 L72.998,37 L68.122,26.229 L52.584,26.229 L47.975,37 L42.617,37 L58.317,0.241 L62.014,0.241 L78.356,37 L78.356,37 Z M54.619,21.514 L65.978,21.514 L60.083,8.28 L54.619,21.514 L54.619,21.514 Z"></path>
                        <path d="M96.251,37 L91,37 L91,0.456 L96.251,0.456 L96.251,37 L96.251,37 Z"></path>
                        <path d="M117.041,32.284 L133.544,32.284 L133.544,37 L111.79,37 L111.79,0.456 L117.041,0.456 L117.041,32.284 L117.041,32.284 Z"></path>
                        <path d="M163.872,0.456 L170.194,0.456 L156.637,17.709 L156.637,37 L151.386,37 L151.386,17.654 L137.828,0.456 L144.152,0.456 L153.958,13.049 L163.872,0.456 L163.872,0.456 Z"></path>
                    </g>
                    <path d="M116.306,140.094 L122.291,140.094 L122.291,141.6 L96.261,141.6 L96.261,140.094 L102.782,140.094 L102.774,4.524 L96.888,4.524 L96.888,3.018 C96.888,3.018 116.6,3 125.464,3.018 C133.068,3.033 138.326,6.987 142.233,13.127 C145.791,18.718 147.538,24.953 148.021,31.463 C148.695,40.548 147.913,49.512 144.503,58.093 C143.147,61.509 141.42,64.698 138.892,67.409 C136.379,70.109 133.39,71.709 129.621,72.058 C129.209,72.098 128.419,72.162 128.399,72.437 C128.375,72.845 129.035,73.076 129.401,73.154 C137.348,74.832 142.758,80.291 143.686,88.28 C144.409,94.519 144.624,100.822 144.978,107.103 C145.358,113.932 145.6,120.768 145.988,127.597 C146.081,129.222 146.455,130.843 146.809,132.441 C147.18,134.123 147.974,135.56 149.818,135.981 C151.631,136.392 152.664,135.126 153.7,133.962 C153.941,133.692 154.102,133.353 154.324,133.065 C154.423,132.932 154.582,132.847 154.715,132.744 C154.751,132.973 154.799,133.2 154.819,133.432 C154.825,133.515 154.775,133.608 154.743,133.692 C153.746,136.274 152.39,138.616 150.386,140.569 C146.983,143.885 140.948,144.049 137.631,139.594 C135.226,136.364 133.733,132.715 133.497,128.754 C132.966,119.833 132.603,110.896 132.384,101.96 C132.239,96.005 131.821,90.108 130.124,84.385 C129.43,82.044 128.494,79.736 127.361,77.573 C126.049,75.08 123.88,73.646 120.913,73.709 C120.184,73.723 119.455,73.622 118.723,73.622 C116.345,73.628 116.312,73.637 116.31,76.033 C116.295,86.265 116.306,140.094 116.306,140.094 L116.306,140.094 Z M116.301,68.455 C116.301,69.096 116.339,69.735 116.305,70.374 C116.248,71.464 116.812,71.764 117.81,71.79 C121.976,71.893 125.16,69.98 127.827,66.99 C130.204,64.329 131.399,61.077 132.309,57.717 C133.79,52.235 134.271,46.615 134.78,40.973 C135.613,31.764 134.152,22.981 130.815,14.455 C129.648,11.476 128.151,8.661 125.76,6.418 C124.504,5.238 123.107,4.514 121.356,4.539 C120.169,4.556 118.981,4.566 117.794,4.529 C116.782,4.503 116.252,4.887 116.305,5.961 C116.337,6.598 116.301,7.238 116.301,7.878 C116.301,17.929 116.301,58.314 116.301,68.455 L116.301,68.455 Z" id="Shape" fill="#000000"></path>
                    <path d="M40.272,99.453 C40.272,91.504 40.234,73.273 40.234,73.273 L33.816,73.273 L33.816,71.775 L60.752,71.775 L60.752,73.273 L53.859,73.273 C53.859,73.273 53.859,118.51 53.857,139.244 C53.857,139.978 53.878,140.711 53.829,141.437 C53.817,141.611 53.777,141.932 53.438,141.932 C53.102,141.932 53.118,141.715 53.076,141.574 C52.803,140.61 52.621,139.616 52.293,138.672 C51.909,137.564 51.536,136.41 50.928,135.42 C49.944,133.811 48.197,133.223 46.418,133.951 C45.178,134.46 43.987,135.199 42.936,136.036 C41.222,137.396 39.607,138.886 38.01,140.383 C33.739,144.378 28.978,144.633 23.825,142.393 C20.293,140.854 17.536,138.387 15.179,135.416 C11.033,130.186 8.482,124.139 6.493,117.863 C3.845,109.499 2.299,100.896 1.321,92.177 C0.085,81.163 -0.285,70.132 0.818,59.111 C2.194,45.369 4.807,31.883 10.486,19.168 C12.39,14.902 14.684,10.865 17.84,7.375 C20.66,4.254 23.968,1.949 28.217,1.215 C32.636,0.446 36.332,1.509 39.046,5.299 C39.676,6.176 40.4,7.066 41.27,7.675 C43.556,9.287 45.657,8.809 47.005,6.355 C47.561,5.347 47.726,4.126 48.1,3.012 C48.177,2.779 48.285,2.366 48.54,2.382 C48.828,2.404 48.92,2.889 48.936,3.151 C49.129,6.979 49.306,10.809 49.459,14.639 C49.876,24.942 50.272,35.241 50.693,45.541 C50.741,46.723 50.916,47.895 50.956,49.076 C50.962,49.324 50.852,49.819 50.622,49.819 C50.365,49.819 50.187,49.381 50.147,49.135 C49.599,45.713 49.116,42.281 48.521,38.87 C47.096,30.699 45.502,22.562 42.427,14.81 C41.145,11.58 39.716,8.384 37.255,5.867 C36.073,4.661 34.622,3.587 33.093,2.876 C30.661,1.747 28.617,2.238 26.995,4.374 C25.693,6.094 24.576,8.032 23.755,10.03 C21.493,15.532 20.173,21.327 19.36,27.195 C18.172,35.773 16.941,44.36 16.264,52.981 C15.401,63.985 14.928,75.021 15.854,86.068 C16.22,90.43 16.202,94.827 16.576,99.19 C17.455,109.458 18.546,119.713 21.601,129.61 C22.454,132.374 23.682,135.065 25.079,137.6 C26.327,139.864 28.142,141.875 31.06,141.756 C34.066,141.633 35.709,139.472 36.942,137.033 C39.213,132.553 40.072,127.681 40.184,122.744 C40.363,114.985 40.26,99.453 40.272,99.453 L40.272,99.453 Z" id="Shape" fill="#000000"></path>
                    <path d="M265.83,141.612 C265.83,141.612 294.263,25.354 296.233,17.304 C297.099,13.767 297.968,10.228 298.793,6.678 C299.168,5.08 298.616,4.511 296.994,4.501 L284.933,4.501 C280.27,4.501 277.256,6.308 274.74,9.796 C271.785,13.888 270.32,18.554 269.37,23.425 C268.281,29.015 268.319,40.374 268.319,40.374 L267.186,40.374 L267.186,3.01 L314.599,3.01 C314.599,3.01 282.314,132.197 281.075,137.24 C280.964,137.682 280.873,138.129 280.748,138.568 C280.426,139.695 280.982,140.073 282.004,140.075 C284.013,140.077 286.023,140.084 288.034,140.085 C290.318,140.085 292.602,140.081 294.887,140.085 C300.856,140.1 305.427,137.498 308.677,132.578 C311.618,128.131 312.972,123.117 313.258,117.867 C313.501,113.4 313.479,101.319 313.479,101.319 L314.837,101.319 L314.837,141.612 L265.83,141.612 L265.83,141.612 Z" id="Shape" fill="#000000"></path>
                    <path d="M215.495,141.605 L215.495,140.031 L220.921,140.031 L213.988,101.142 L193.974,101.142 L186.849,140.031 L193.595,140.031 L193.595,141.605 L179.12,141.605 L179.12,140.031 L184.737,140.031 L210.813,0.943 L234.829,140.031 L240.164,140.031 L240.164,141.605 L215.495,141.605 L215.495,141.605 Z M213.873,99.521 L204.424,45.121 L194.351,99.521 L213.873,99.521 L213.873,99.521 Z" id="Shape" fill="#000000"></path>
                    <path d="M437.018,141.605 L437.018,140.031 L442.444,140.031 L435.508,101.142 L415.496,101.142 L408.371,140.031 L415.117,140.031 L415.117,141.605 L400.642,141.605 L400.642,140.031 L406.261,140.031 L432.335,0.943 L456.351,140.031 L461.687,140.031 L461.687,141.605 L437.018,141.605 L437.018,141.605 Z M435.396,99.521 L425.949,45.121 L415.873,99.521 L435.396,99.521 L435.396,99.521 Z" id="Shape" fill="#000000"></path>
                    <path d="M374.843,3.012 L374.843,4.65 L369.004,4.65 L369.008,140.117 L374.843,140.117 L374.843,141.602 L349.553,141.602 L349.553,140.117 L355.417,140.117 L355.403,4.65 L349.553,4.65 L349.553,3.012 L374.843,3.012 Z" id="Shape" fill="#000000"></path>
                </g>
            </g>
        </g>
    </g>
</svg>